<svg width="101" height="36" viewBox="0 0 101 36" fill="none" xmlns="http://www.w3.org/2000/svg">
<path d="M92.413 17.582C92.4945 17.5285 92.5899 17.5 92.6874 17.5H93.5095C93.5918 17.5 93.672 17.5203 93.7435 17.5581C93.777 17.567 93.8332 17.5794 93.9178 17.5947C94.0921 17.6263 94.3502 17.6641 94.6972 17.7079C94.7185 17.7106 94.7396 17.7146 94.7604 17.72C96.7644 18.2412 98.3278 19.3786 99.4274 21.1184L99.4289 21.1206C99.9354 21.9317 100.281 23.0696 100.494 24.4928C100.498 24.5174 100.5 24.5422 100.5 24.567V25.1789C100.5 26.1429 100.162 27.2818 99.5428 28.5753L92.413 17.582ZM92.413 17.582C92.4109 17.583 92.3918 17.5922 92.345 17.6017C92.286 17.6136 92.2001 17.6224 92.0816 17.6224C92.0472 17.6224 92.0128 17.6259 91.9791 17.633C90.3134 17.9819 89.0128 18.5932 88.145 19.5135C87.1766 20.3392 86.4639 21.5399 85.9798 23.0702C85.9717 23.0958 85.9657 23.122 85.9618 23.1485C85.9009 23.5642 85.8499 23.8767 85.8087 24.09C85.788 24.1975 85.7713 24.272 85.7587 24.3187C85.757 24.325 85.7555 24.3303 85.7543 24.3345C85.7169 24.4058 85.6969 24.4855 85.6969 24.567V25.342C85.6969 25.4124 85.711 25.516 85.7702 25.6177C85.811 25.8819 85.8474 26.0966 85.8794 26.2593C85.8984 26.3559 85.9171 26.4413 85.9359 26.511C85.9452 26.5455 85.9563 26.5829 85.9695 26.619C85.9712 26.6234 85.9731 26.6288 85.9755 26.6349C86.1512 27.5881 86.5893 28.5209 87.2655 29.432C88.2374 30.7611 89.6528 31.6725 91.4696 32.1863C91.4959 32.1937 91.5228 32.199 91.55 32.202C91.911 32.2425 92.1785 32.2785 92.358 32.3099C92.4403 32.3242 92.4954 32.3361 92.5287 32.3448C92.6028 32.3865 92.6872 32.4091 92.7739 32.4091H93.3364C93.4257 32.4091 93.553 32.4026 93.6751 32.3565C93.697 32.3483 93.7222 32.3375 93.7491 32.3232C94.8783 32.2744 96.1028 31.808 97.4102 30.9864C97.4343 30.9713 97.457 30.9542 97.4781 30.9352C98.5224 29.9983 99.2421 29.2062 99.5422 28.5765L92.413 17.582ZM35.7429 17.523C35.6944 17.5078 35.6438 17.5 35.593 17.5H30.9199C30.8034 17.5 30.648 17.5335 30.5174 17.6566C30.3923 17.7745 30.3506 17.918 30.3377 18.0159C30.3348 18.0376 30.3333 18.0596 30.3333 18.0816V31.8275C30.3333 31.9396 30.3645 32.1135 30.512 32.2525C30.654 32.3864 30.8211 32.4091 30.9199 32.4091H31.1362C31.235 32.4091 31.4021 32.3864 31.5441 32.2525C31.6916 32.1135 31.7227 31.9396 31.7227 31.8275V18.8671H35.1603C35.3443 18.8671 35.5603 18.8879 35.8108 18.9334C36.4295 19.1507 36.8501 19.4281 37.1156 19.7409C37.3787 20.051 37.5161 20.4265 37.5161 20.896V21.1C37.5161 21.6972 37.2224 22.2613 36.497 22.7949C36.1575 22.9686 35.71 23.0996 35.1391 23.1739C34.9793 23.1946 34.8394 23.2911 34.7631 23.433C34.6869 23.5749 34.6836 23.7448 34.7545 23.8895C36.0275 26.4902 37.0071 28.4783 37.6931 29.8532C38.036 30.5405 38.3062 31.0759 38.5032 31.4586C38.6924 31.8259 38.8298 32.0839 38.898 32.1863C38.9908 32.3255 39.1469 32.4091 39.3142 32.4091H39.5305C39.6293 32.4091 39.7964 32.3864 39.9384 32.2525C40.0859 32.1135 40.1171 31.9396 40.1171 31.8275C40.1171 31.7324 40.0899 31.6393 40.0389 31.559C40.0408 31.5621 40.0393 31.5591 40.033 31.5474C40.0238 31.5301 40.0046 31.4938 39.9719 31.4301C39.9238 31.3366 39.8564 31.2033 39.7692 31.0296C39.5949 30.6825 39.3439 30.1778 39.0159 29.5152C38.4102 28.2917 37.5431 26.5319 36.4144 24.2354C36.4254 24.2317 36.4364 24.228 36.4474 24.2242C36.4584 24.2205 36.4692 24.2164 36.4798 24.2119C37.2297 23.8952 37.8303 23.4706 38.2432 22.9191C38.6604 22.362 38.8622 21.7071 38.8622 20.9776C38.8622 20.2293 38.6575 19.5616 38.2294 19.0016C37.8054 18.4469 37.1891 18.0326 36.4216 17.7373C36.4118 17.7335 36.4019 17.7301 36.3919 17.7269L35.7429 17.523ZM53.961 17.6224C53.7702 17.6224 53.5961 17.7309 53.5121 17.9021C49.3716 26.3419 47.1066 30.8807 46.6949 31.5715C46.6487 31.6489 46.6244 31.7374 46.6244 31.8275C46.6244 31.9396 46.6555 32.1135 46.803 32.2525C46.945 32.3864 47.1121 32.4091 47.2109 32.4091H47.4705C47.6468 32.4091 47.8101 32.3163 47.9002 32.1648C48.2325 31.6064 50.2767 27.5125 54.0117 19.9321C55.9496 23.8289 57.428 26.7931 58.4468 28.8243C58.9806 29.8884 59.3887 30.6973 59.6707 31.2504C59.8116 31.5267 59.9217 31.7404 60.0006 31.8907C60.04 31.9657 60.0726 32.0267 60.0978 32.0727L60.0991 32.075C60.1166 32.1068 60.1483 32.1645 60.1789 32.206C60.2732 32.3337 60.4225 32.4091 60.5813 32.4091H60.8841C61.0569 32.4091 61.2174 32.3199 61.3087 32.1732C61.4 32.0265 61.409 31.8431 61.3326 31.6881L54.5393 17.9014C54.4551 17.7305 54.2812 17.6224 54.0908 17.6224H53.961ZM74.2329 17.5C74.1353 17.5 74.0399 17.5285 73.9584 17.582C73.9564 17.583 73.9372 17.5922 73.8905 17.6017C73.8314 17.6136 73.7456 17.6224 73.6271 17.6224C73.5926 17.6224 73.5583 17.6259 73.5246 17.633C71.8589 17.9819 70.5582 18.5932 69.6904 19.5135C68.7221 20.3392 68.0093 21.5399 67.5253 23.0702C67.5172 23.0958 67.5112 23.122 67.5073 23.1485C67.4463 23.5642 67.3953 23.8767 67.3542 24.09C67.3335 24.1975 67.3167 24.272 67.3041 24.3187C67.3025 24.325 67.301 24.3303 67.2998 24.3345C67.2623 24.4058 67.2424 24.4855 67.2424 24.567V25.342C67.2424 25.4124 67.2564 25.516 67.3156 25.6177C67.3565 25.8819 67.3929 26.0966 67.4249 26.2593C67.4438 26.3559 67.4626 26.4413 67.4814 26.511C67.4907 26.5455 67.5018 26.5829 67.515 26.619C67.5166 26.6234 67.5186 26.6288 67.521 26.6349C67.6967 27.5881 68.1347 28.5209 68.811 29.432C69.7828 30.7611 71.1983 31.6725 73.015 32.1863C73.0414 32.1937 73.0683 32.199 73.0955 32.202C73.4565 32.2425 73.7239 32.2785 73.9035 32.3099C73.9858 32.3242 74.0409 32.3361 74.0742 32.3448C74.1483 32.3865 74.2326 32.4091 74.3194 32.4091H74.8819C74.913 32.4091 74.944 32.4062 74.9745 32.4004C75.2621 32.3462 75.4825 32.306 75.637 32.2795C75.7146 32.2662 75.7729 32.2569 75.8136 32.251C75.8395 32.2472 75.8518 32.2459 75.8547 32.2455C75.8745 32.2447 75.8942 32.2427 75.9138 32.2395C77.1846 32.0337 78.3352 31.489 79.3597 30.6176C79.4714 30.5226 79.5358 30.3834 79.5358 30.2367V26.0355C79.5358 25.9038 79.4916 25.7423 79.3571 25.6155C79.2358 25.5011 79.0957 25.4677 79.0078 25.4573C78.9883 25.455 78.9688 25.4539 78.9493 25.4539H78.7762C78.6597 25.4539 78.5043 25.4873 78.3737 25.6105C78.2486 25.7284 78.2069 25.8719 78.194 25.9697C78.1911 25.9915 78.1896 26.0135 78.1896 26.0355V29.8929C77.0313 30.6681 75.8589 31.042 74.6656 31.042C73.4568 31.042 72.3172 30.6841 71.2369 29.9534C69.4796 28.6048 68.6318 26.9537 68.6318 24.9749C68.6318 23.9391 68.9056 22.8985 69.4693 21.8477C70.8237 19.8305 72.5338 18.8671 74.6223 18.8671C75.1373 18.8671 75.7176 18.9419 76.3659 19.098C76.4042 19.1072 76.4435 19.1118 76.4829 19.1118H76.5261C76.8023 19.1118 77.0261 18.888 77.0261 18.6118V18.3671C77.0261 18.1212 76.8627 17.9813 76.8227 17.9482C76.7614 17.8977 76.6968 17.8642 76.6528 17.8434C76.5597 17.7996 76.4438 17.7604 76.3213 17.7243C76.2956 17.7167 76.2693 17.7112 76.2427 17.7079C75.8957 17.6641 75.6375 17.6263 75.4633 17.5947C75.3787 17.5794 75.3225 17.567 75.2889 17.5581C75.2174 17.5203 75.1372 17.5 75.055 17.5H74.2329ZM76.2306 18.7501C76.2306 18.7501 76.2297 18.7497 76.228 18.7487C76.2298 18.7496 76.2307 18.7501 76.2306 18.7501ZM98.1941 28.2128C96.8568 30.1243 95.1741 31.042 93.1201 31.042C91.9114 31.042 90.7718 30.6841 89.6915 29.9534C87.9341 28.6048 87.0864 26.9537 87.0864 24.9749C87.0864 23.9391 87.3601 22.8985 87.9239 21.8477C89.2783 19.8305 90.9884 18.8671 93.0768 18.8671C94.5392 18.8671 95.8361 19.3381 96.9855 20.2915C98.4328 21.6599 99.1105 23.0959 99.1105 24.6078V25.3013C99.1105 26.1761 98.8196 27.1439 98.1941 28.2128Z" fill="#1B77DF" stroke="#1B77DF" stroke-linejoin="round"/>
<path opacity="0.991" fill-rule="evenodd" clip-rule="evenodd" d="M15.4167 0.853693C16.6515 0.892293 17.6595 1.38554 18.4407 2.33343C18.6516 2.62498 18.8342 2.93368 18.9882 3.25956C19.2928 3.9782 19.465 4.73187 19.505 5.52055C19.5501 6.36796 19.5176 7.21131 19.4077 8.05059C19.1971 9.49826 18.8628 10.9159 18.4049 12.3035C18.4082 12.3069 18.4117 12.3105 18.4151 12.3139C18.3106 12.6033 18.2099 12.8948 18.1132 13.1883C18.1063 13.3021 18.1063 13.4159 18.1132 13.5297C18.1322 13.6738 18.1527 13.8187 18.1746 13.9644C18.3346 14.3413 18.4046 14.7362 18.3844 15.1492C18.3846 15.296 18.3795 15.4425 18.369 15.589C18.219 16.7904 17.8097 17.8804 17.141 18.8589C17.056 18.9741 16.969 19.088 16.8801 19.2003C16.7893 19.3077 16.6938 19.4094 16.5935 19.5056C16.3655 19.7001 16.1335 19.8881 15.8977 20.0696C14.8181 20.9022 13.7317 21.7231 12.6383 22.5323C12.6231 22.5239 12.6077 22.5153 12.5923 22.5065C12.0181 21.9181 11.4416 21.3317 10.8628 20.7473C10.4422 20.3351 10.0295 19.9212 9.62457 19.5056C11.5702 18.0418 13.5213 16.5863 15.4781 15.1388C15.9795 14.7629 16.481 14.3869 16.9824 14.0109C17.3663 13.6364 17.6818 13.2105 17.929 12.733C17.9831 12.6172 18.0292 12.4982 18.0672 12.376C18.4133 11.3106 18.6981 10.2292 18.9216 9.13193C19.0573 8.40808 19.1528 7.67684 19.2082 6.9382C19.2539 6.19546 19.2232 5.45732 19.1161 4.72377C19.0858 4.54926 19.0483 4.38023 19.0035 4.21673C19.0502 5.59524 18.53 6.69038 17.4429 7.50216C16.4943 8.12583 15.4709 8.28966 14.3729 7.99368C13.3953 7.67559 12.6671 7.06163 12.188 6.15177C11.7616 5.26559 11.6866 4.34808 11.9629 3.39925C12.3253 2.32898 13.0229 1.56842 14.0556 1.11756C14.4951 0.948037 14.9487 0.860081 15.4167 0.853693ZM15.1711 16.7583C15.4509 16.7706 15.6402 16.9085 15.739 17.1722C15.8023 17.4909 15.6915 17.7237 15.4065 17.8707C15.1296 17.9555 14.9029 17.8848 14.7259 17.6585C14.5716 17.3702 14.6108 17.1132 14.8436 16.8876C14.9372 16.8169 15.0429 16.7791 15.1609 16.7738C15.1666 16.7699 15.17 16.7647 15.1711 16.7583Z" fill="#1B77DF"/>
<path opacity="0.985" fill-rule="evenodd" clip-rule="evenodd" d="M18.5277 21.4665C18.8151 21.4736 19.1016 21.5028 19.3873 21.5545C20.2242 21.7423 20.9848 22.0975 21.6693 22.6203C22.5608 23.3456 23.2395 24.2355 23.7058 25.29C23.7805 25.4496 23.8537 25.61 23.9258 25.7712C23.9407 25.8118 23.9527 25.8532 23.9616 25.8954C22.457 25.7439 20.9613 25.5887 19.4742 25.4297C19.4709 25.4331 19.4674 25.4367 19.464 25.4401C19.4105 25.4344 19.3576 25.424 19.3054 25.409C19.2957 25.4141 19.2854 25.4175 19.2747 25.4194C18.9893 25.3863 18.7045 25.3518 18.4202 25.3159C18.3855 24.7281 18.5663 24.2108 18.9626 23.7637C19.0871 23.6447 19.2219 23.5396 19.3668 23.4481C18.6832 22.9673 18.4035 22.3067 18.5277 21.4665Z" fill="#1B77DF"/>
<path opacity="0.982" fill-rule="evenodd" clip-rule="evenodd" d="M10.699 21.9942C10.7273 22.0232 10.7648 22.0491 10.8116 22.0719C10.8082 22.0753 10.8048 22.0788 10.8014 22.0822C10.8281 22.0975 10.8554 22.1096 10.8832 22.1184C10.881 22.1306 10.8844 22.141 10.8935 22.1495C10.9253 22.1679 10.9509 22.1921 10.9702 22.2219C10.9736 22.2185 10.9771 22.215 10.9805 22.2116C10.9979 22.2336 11.02 22.2475 11.047 22.2529C11.0447 22.2652 11.0481 22.2755 11.0572 22.284C11.0908 22.3059 11.1215 22.33 11.1493 22.3564C11.157 22.3772 11.169 22.3841 11.1851 22.3771C11.19 22.3869 11.1918 22.3973 11.1903 22.4082C11.2198 22.4053 11.2352 22.419 11.2363 22.4496C11.2397 22.4461 11.2432 22.4426 11.2465 22.4392C11.4857 22.6689 11.7227 22.9 11.9578 23.1325C12.0141 23.1849 12.0619 23.2383 12.101 23.2929C12.1113 23.2963 12.1215 23.2998 12.1317 23.3032C12.1284 23.3067 12.1249 23.3102 12.1215 23.3136C12.1312 23.3186 12.1415 23.3203 12.1522 23.3188C12.1545 23.3387 12.163 23.356 12.1778 23.3705C12.2296 23.4221 12.2825 23.4721 12.3364 23.5206C12.333 23.524 12.3295 23.5275 12.3262 23.5309C12.3359 23.5359 12.3461 23.5376 12.3569 23.5361C12.3592 23.556 12.3677 23.5733 12.3824 23.5878C12.5498 23.7616 12.7084 23.9339 12.8583 24.1052C13.1919 24.48 13.5364 24.8836 13.8919 25.3159C13.9239 25.3254 13.9273 25.3444 13.9021 25.3728C13.8426 25.3883 13.7863 25.4107 13.7333 25.4401C13.7291 25.4353 13.7239 25.4319 13.7179 25.4297C13.6681 25.4431 13.6186 25.4568 13.5695 25.4711C13.5653 25.4664 13.5602 25.4629 13.5542 25.4608C13.5164 25.4737 13.4789 25.484 13.4416 25.4918C13.4348 25.4884 13.428 25.4849 13.4211 25.4815C13.385 25.488 13.3492 25.4949 13.3137 25.5022C13.2746 25.4928 13.2337 25.4928 13.1909 25.5022C13.1875 25.4952 13.184 25.4884 13.1807 25.4815C13.1613 25.4877 13.1426 25.4911 13.1244 25.4918C13.056 25.4775 12.986 25.4603 12.9146 25.4401C12.8979 25.4463 12.8809 25.4428 12.8634 25.4297C12.86 25.4331 12.8566 25.4367 12.8532 25.4401C12.7761 25.4007 12.701 25.3662 12.628 25.3366C12.6247 25.34 12.6212 25.3435 12.6178 25.3469C12.6146 25.3338 12.6095 25.3218 12.6025 25.3107C12.5612 25.3063 12.5288 25.2873 12.5052 25.2538C12.5019 25.2572 12.4984 25.2607 12.495 25.2642C12.4764 25.2368 12.4508 25.2196 12.4183 25.2124C12.0701 24.872 11.7205 24.5236 11.3693 24.1673C11.168 24.4689 11.0538 24.807 11.0265 25.1814C11.0316 25.2435 11.0368 25.3055 11.0419 25.3676C11.0489 25.3731 11.054 25.3799 11.0572 25.3883C11.0489 25.4046 11.0456 25.4219 11.047 25.4401C10.9557 25.4424 10.8653 25.439 10.7758 25.4297C10.3767 25.4367 9.97759 25.4435 9.57849 25.4504C8.67849 25.4377 7.75236 25.4377 6.80011 25.4504C6.81819 25.178 6.84718 24.9055 6.88709 24.6329C6.92902 24.3731 6.97678 24.1144 7.03036 23.8569C7.0714 23.6909 7.11574 23.5253 7.1634 23.3602C7.23189 23.166 7.30352 22.9728 7.3783 22.7807C7.60518 22.3099 7.94459 21.9459 8.39653 21.689C8.44315 21.6727 8.4875 21.6538 8.52956 21.6321C8.59483 21.6072 8.65964 21.5814 8.724 21.5545C8.82923 21.5349 8.93326 21.5125 9.03611 21.4872C9.03952 21.4941 9.04294 21.501 9.04635 21.5079C9.05999 21.501 9.07364 21.4941 9.08728 21.4872C9.10886 21.4879 9.13103 21.4913 9.1538 21.4976C9.16727 21.4714 9.17921 21.4714 9.18962 21.4976C9.20509 21.4721 9.21874 21.4721 9.23055 21.4976C9.24913 21.4775 9.2696 21.4705 9.29195 21.4769C9.29878 21.4838 9.30559 21.4906 9.31242 21.4976C9.32948 21.4941 9.34653 21.4906 9.36358 21.4872C9.42335 21.4952 9.48304 21.5055 9.54267 21.5183C9.54867 21.5161 9.55378 21.5127 9.55802 21.5079C9.96657 21.5826 10.3469 21.7448 10.699 21.9942Z" fill="#1B77DF"/>
<path opacity="0.01" fill-rule="evenodd" clip-rule="evenodd" d="M8.53006 21.6333C8.52261 21.6179 8.52261 21.6179 8.53006 21.6333Z" fill="#1B77DF"/>
<path opacity="0.01" fill-rule="evenodd" clip-rule="evenodd" d="M10.699 21.9839C10.7139 21.9917 10.7139 21.9917 10.699 21.9839Z" fill="#1B77DF"/>
<path opacity="0.01" fill-rule="evenodd" clip-rule="evenodd" d="M11.1494 22.3461C11.1642 22.3539 11.1642 22.3539 11.1494 22.3461Z" fill="#1B77DF"/>
<path opacity="0.01" fill-rule="evenodd" clip-rule="evenodd" d="M11.9578 23.1222C11.9726 23.1299 11.9726 23.1299 11.9578 23.1222Z" fill="#1B77DF"/>
<path opacity="0.01" fill-rule="evenodd" clip-rule="evenodd" d="M12.8583 24.0949C12.8732 24.1026 12.8732 24.1026 12.8583 24.0949Z" fill="#1B77DF"/>
<path opacity="0.986" fill-rule="evenodd" clip-rule="evenodd" d="M23.9411 26.1644C23.9546 26.1627 23.9666 26.1661 23.9769 26.1748C23.9795 26.1947 23.9846 26.2138 23.9923 26.2317C23.9805 26.2411 23.9822 26.2498 23.9974 26.2575C24.0191 26.5066 24.0429 26.755 24.069 27.0026C24.1077 27.6935 24.0855 28.3816 24.0025 29.067C23.943 29.4544 23.8458 29.8321 23.7109 30.2001C23.5677 30.5573 23.3648 30.8729 23.102 31.1469C22.8283 31.4015 22.5128 31.5689 22.1554 31.6488C22.152 31.6453 22.1485 31.6418 22.1452 31.6384C22.0904 31.6479 22.0359 31.6583 21.9814 31.6694C21.8974 31.6682 21.8138 31.6682 21.7307 31.6694C21.7147 31.6636 21.6994 31.6566 21.6847 31.6488C21.669 31.6533 21.6536 31.6568 21.6386 31.6591C21.3199 31.6153 21.0334 31.4912 20.779 31.2866C20.6268 31.1141 20.4716 30.9451 20.3134 30.7795C20.0178 30.3869 19.7262 29.992 19.4384 29.5947C19.4402 29.5895 19.4418 29.5844 19.4435 29.5792C20.9402 28.4402 22.4394 27.302 23.9411 26.1644Z" fill="#1B77DF"/>
<path opacity="0.984" fill-rule="evenodd" clip-rule="evenodd" d="M13.0937 26.4335C13.2269 26.4348 13.3651 26.4486 13.5082 26.4748C13.5501 26.4658 13.5944 26.4694 13.6412 26.4852C13.6554 26.4716 13.6657 26.4751 13.6719 26.4955C13.6927 26.4902 13.7131 26.4867 13.7333 26.4852C13.7445 26.4934 13.7563 26.5003 13.7691 26.5059C13.7896 26.5025 13.81 26.499 13.8305 26.4955C13.8398 26.5041 13.8467 26.5145 13.851 26.5266C13.6858 26.8954 13.4249 27.1713 13.0681 27.3544C13.0088 27.3686 12.9542 27.3928 12.9044 27.4268C12.901 27.4234 12.8975 27.4199 12.8942 27.4165C12.8347 27.4393 12.775 27.453 12.7151 27.4579C12.6644 27.4621 12.6115 27.4621 12.5565 27.4579C12.5155 27.4648 12.4746 27.4717 12.4337 27.4786C12.021 27.4683 11.6152 27.4683 11.2159 27.4786C11.275 27.8549 11.4336 28.1809 11.6917 28.4565C11.7388 28.5025 11.79 28.5421 11.8452 28.5755C11.8547 28.5878 11.8581 28.6015 11.8555 28.6168C11.768 28.688 11.6861 28.7674 11.6099 28.8548C11.4488 29.009 11.2919 29.1694 11.1391 29.336C11.1083 29.3533 11.0879 29.374 11.0777 29.3981C11.0473 29.4218 11.0166 29.446 10.9856 29.4705C10.4289 30.0265 9.87634 30.5853 9.3278 31.1469C9.16462 31.3046 9.00089 31.4616 8.8366 31.6177C8.34493 31.0349 7.92707 30.4071 7.583 29.7344C7.51258 29.5752 7.44606 29.4148 7.38345 29.2532C7.38686 29.2498 7.39028 29.2463 7.39369 29.2429C7.36419 29.1633 7.33861 29.0823 7.31693 28.9997C7.24393 28.5942 7.2644 28.194 7.37834 27.7994C7.53813 27.3655 7.81273 27.0292 8.20213 26.7905C8.20895 26.7801 8.21577 26.7698 8.22259 26.7594C8.3585 26.6941 8.49325 26.6269 8.62681 26.5576C8.70791 26.5416 8.7932 26.5105 8.88265 26.4645C8.91527 26.4681 8.94768 26.4612 8.97987 26.4438C9.01266 26.448 9.04506 26.4412 9.07709 26.4231C9.10237 26.4324 9.12455 26.4256 9.1436 26.4024C9.15068 26.4079 9.1558 26.4147 9.15895 26.4231C9.18028 26.4009 9.20415 26.394 9.23059 26.4024C9.25502 26.3893 9.27891 26.3858 9.30222 26.3921C9.37137 26.3843 9.44129 26.374 9.51201 26.361C9.53243 26.3725 9.55119 26.3691 9.56829 26.3507C9.59041 26.3552 9.61259 26.3586 9.63481 26.361C9.64845 26.3541 9.6621 26.3473 9.67574 26.3403C9.69851 26.3465 9.72068 26.35 9.74226 26.3507C9.75661 26.3251 9.77196 26.3251 9.78831 26.3507C9.79857 26.3296 9.81222 26.326 9.82924 26.3403C9.88585 26.3337 9.94214 26.3268 9.99809 26.3196C10.0476 26.3247 10.0971 26.3281 10.1465 26.33C10.2304 26.3233 10.3139 26.3163 10.3972 26.3093C10.5693 26.3213 10.7433 26.3213 10.9191 26.3093C10.9874 26.3162 11.0555 26.323 11.1238 26.33C11.275 26.3236 11.4336 26.3236 11.5996 26.33C11.6131 26.3562 11.625 26.3562 11.6354 26.33C11.6491 26.3576 11.6628 26.3576 11.6764 26.33C11.6832 26.3369 11.69 26.3437 11.6968 26.3507C11.8026 26.3507 11.9084 26.3507 12.0141 26.3507C12.0277 26.3576 12.0414 26.3644 12.055 26.3714C12.0997 26.3683 12.144 26.3649 12.188 26.361C12.2017 26.368 12.2154 26.3748 12.229 26.3817C12.3313 26.3817 12.4337 26.3817 12.536 26.3817C12.6314 26.3848 12.7286 26.3986 12.8276 26.4231C12.8381 26.3969 12.8499 26.3969 12.8635 26.4231C12.8677 26.4184 12.8728 26.4149 12.8788 26.4128C12.9082 26.4192 12.9371 26.4261 12.9658 26.4335C13.0069 26.4314 13.0495 26.4314 13.0937 26.4335Z" fill="#1B77DF"/>
<path opacity="0.01" fill-rule="evenodd" clip-rule="evenodd" d="M13.0937 26.4231C13.1085 26.4309 13.1085 26.4309 13.0937 26.4231Z" fill="#1B77DF"/>
<path opacity="0.988" fill-rule="evenodd" clip-rule="evenodd" d="M14.7106 27.3648C14.7242 27.3648 14.7379 27.3648 14.7515 27.3648C14.7692 27.4492 14.7914 27.532 14.818 27.6131C14.9278 28.1177 14.8186 28.5626 14.4905 28.948C14.1682 29.2739 13.8458 29.5999 13.5235 29.9258C13.715 30.0502 13.9197 30.1468 14.1375 30.2156C14.3469 30.2622 14.5584 30.2744 14.772 30.2518C14.77 31.6833 14.7632 33.1147 14.7515 34.5461C13.9598 34.4829 13.1888 34.3243 12.4387 34.0701C11.8754 33.8736 11.4353 33.5218 11.1186 33.0147C10.8939 32.6129 10.8205 32.1782 10.8986 31.7108C10.9892 31.2541 11.1767 30.8402 11.4614 30.4691C11.6012 30.304 11.741 30.1384 11.881 29.9724C12.1593 29.6772 12.4442 29.3892 12.7355 29.1084C13.3802 28.5098 14.0385 27.9287 14.7106 27.3648Z" fill="#1B77DF"/>
<path opacity="0.01" fill-rule="evenodd" clip-rule="evenodd" d="M12.7149 27.4579C12.7082 27.4645 12.7082 27.4645 12.7149 27.4579Z" fill="#1B77DF"/>
<path opacity="0.986" fill-rule="evenodd" clip-rule="evenodd" d="M17.0438 30.376C17.079 30.3699 17.1131 30.3595 17.1461 30.3449C17.1522 30.3471 17.1573 30.3505 17.1615 30.3553C17.3036 30.2901 17.4452 30.2228 17.5862 30.1535C17.7574 30.0422 17.9006 29.9059 18.016 29.7448C19.0093 30.7475 20.0071 31.7512 21.0093 32.756C21.011 32.7646 21.0126 32.7732 21.0144 32.7818C20.9938 32.8361 20.9564 32.874 20.9018 32.8957C20.6817 33.0728 20.4565 33.2487 20.2264 33.4234C20.01 33.576 19.7882 33.7209 19.5612 33.858C19.5339 33.8684 19.5067 33.8787 19.4794 33.889C19.4827 33.8925 19.4862 33.896 19.4896 33.8994C19.4542 33.9206 19.4166 33.9378 19.377 33.9511C19.3262 33.991 19.2648 34.022 19.1928 34.0443C19.2046 34.0537 19.203 34.0624 19.1877 34.0701C19.1843 34.0667 19.1808 34.0632 19.1775 34.0598C19.0102 34.1357 18.843 34.2116 18.676 34.2874C18.6727 34.284 18.6692 34.2805 18.6658 34.2771C18.596 34.3017 18.5261 34.3242 18.456 34.3444C18.3362 34.3589 18.2168 34.3745 18.0978 34.3909C17.9517 34.3881 17.8084 34.3846 17.668 34.3806C17.6404 34.3769 17.6097 34.3701 17.5759 34.3599C17.556 34.3661 17.5355 34.3627 17.5145 34.3495C17.5085 34.3517 17.5034 34.3551 17.4992 34.3599C17.4719 34.3461 17.4446 34.3322 17.4173 34.3185C17.4139 34.3219 17.4105 34.3254 17.4071 34.3288C17.369 34.3163 17.3315 34.3025 17.2945 34.2874C17.2741 34.2874 17.2536 34.2874 17.2331 34.2874C17.2202 34.2688 17.2031 34.2549 17.182 34.246C17.1715 34.2577 17.1648 34.2543 17.1615 34.2357C17.1405 34.2393 17.12 34.2324 17.1001 34.215C17.0967 34.2184 17.0932 34.2219 17.0899 34.2254C17.0513 34.1973 17.007 34.1697 16.9568 34.1426C16.9534 34.146 16.95 34.1495 16.9466 34.1529C16.8482 34.0818 16.7476 34.0077 16.6447 33.9304C16.2945 33.5909 16.0558 33.1874 15.9284 32.7197C15.9088 32.6166 15.8867 32.5149 15.8618 32.4145C15.7803 31.7241 15.753 31.0308 15.78 30.3346C15.8028 29.8245 15.8266 29.314 15.8516 28.8031C15.8838 28.4564 15.9111 28.1079 15.9335 27.758C15.9477 27.7471 15.963 27.7454 15.9795 27.7528C16.2511 27.8818 16.4779 28.0733 16.66 28.3271C16.7835 28.5121 16.8585 28.7157 16.8852 28.9376C16.8991 29.4273 16.9042 29.9171 16.9005 30.407C16.9503 30.4005 16.9981 30.3901 17.0438 30.376Z" fill="#1B77DF"/>
<path opacity="0.01" fill-rule="evenodd" clip-rule="evenodd" d="M17.0446 30.3765C17.0367 30.3779 17.0296 30.3761 17.0233 30.371C17.0333 30.3635 17.0403 30.3652 17.0446 30.3765Z" fill="#1B77DF"/>
<path opacity="0.01" fill-rule="evenodd" clip-rule="evenodd" d="M17.6679 34.3806C17.6612 34.3872 17.6612 34.3872 17.6679 34.3806Z" fill="#1B77DF"/>
</svg>
